<svg width="120" height="120" viewBox="0 0 120 120" fill="none" xmlns="http://www.w3.org/2000/svg">
<path d="M77.2467 20.9802C74.6863 22.2909 71.7933 22.8086 68.9372 22.467L64.3778 27.0264L67.2853 29.5209C84.152 31.1894 96.0298 38.3921 96.0298 44.9174C96.0298 49.576 89.967 54.5815 80.3855 57.6707C77.8745 59.9174 74.587 61.3381 70.9692 61.4042L63.8987 68.2764C63.8822 69.0363 63.7996 69.7632 63.6674 70.4901C75.3139 70.011 85.5066 67.3513 92.9406 63.1553C93.1058 63.4196 93.2875 63.6674 93.5022 63.8987C95.1707 65.6993 96.0298 67.5165 96.0298 69.2841C96.0298 76.7181 80.6168 85.0275 59.9835 85.0275C39.3502 85.0275 23.9538 76.685 23.9538 69.2511C23.9538 67.5661 24.7302 65.8315 26.25 64.1134C26.5309 63.783 26.7621 63.4361 26.9439 63.0562C29.2897 64.3943 31.9494 65.5507 34.8238 66.5749C35.1707 63.0231 36.8062 59.8513 39.2346 57.5055C29.8513 54.4163 23.9538 49.4769 23.9538 44.8844C23.9538 40.837 28.5628 36.5253 36.0793 33.4361C35.1942 31.5319 34.7374 29.4567 34.7412 27.3568C34.7412 25.8205 34.989 24.3502 35.4185 22.9626C22.3844 27.4064 14.0419 35.3855 14.0419 44.8844V94.3282C14.0419 108.965 33.7996 119.983 60 119.983C86.2005 119.983 105.958 108.948 105.958 94.3282V44.8844C105.958 33.7004 94.3943 24.6311 77.2467 20.9802ZM60 110.088C39.3668 110.088 23.9538 101.779 23.9538 94.3447C23.9538 92.6597 24.7302 90.9251 26.25 89.207C26.6795 88.7114 26.9934 88.1663 27.2082 87.5716C35.4185 92.1641 46.9163 94.9064 60 94.9064C73.0342 94.9064 84.4659 92.1806 92.6762 87.6377C92.891 88.1002 93.1553 88.5463 93.5187 88.9427C95.1872 90.7434 96.0463 92.5606 96.0463 94.3282C96.0463 101.779 80.6333 110.088 60 110.088ZM70.6718 38.8216C69.8789 38.8216 69.1355 38.9703 68.4251 39.185L57.0099 29.3888C57.1751 28.7445 57.2908 28.0837 57.2908 27.3733C57.2908 26.5804 57.1421 25.837 56.9273 25.1267L67.0209 15.033C68.1278 15.6112 69.3502 15.9581 70.6718 15.9581C72.7867 15.9538 74.8136 15.1117 76.3091 13.6163C77.8045 12.1209 78.6465 10.0939 78.6509 7.97907C78.6465 5.86423 77.8045 3.83726 76.3091 2.34184C74.8136 0.846417 72.7867 0.00436501 70.6718 0C68.557 0.00436504 66.53 0.846417 65.0346 2.34184C63.5392 3.83726 62.6971 5.86423 62.6927 7.97907C62.6927 8.12775 62.7258 8.25991 62.7423 8.39207L51.4262 19.7081C50.7489 19.5264 50.0551 19.3943 49.3282 19.3943C44.9339 19.3943 41.3491 22.9791 41.3491 27.3733C41.3491 31.7676 44.9339 35.3524 49.3282 35.3524C50.1377 35.3524 50.9141 35.1872 51.6575 34.9725L63.0066 44.7192C62.8249 45.38 62.6927 46.0738 62.6927 46.8007C62.6927 47.5936 62.8414 48.3535 63.0727 49.0804L51.4758 60.3634C50.782 60.1652 50.0716 60.033 49.3282 60.033C44.9339 60.033 41.3491 63.6178 41.3491 68.0121C41.3491 72.4064 44.9339 75.9912 49.3282 75.9912C51.4431 75.9868 53.47 75.1448 54.9655 73.6494C56.4609 72.1539 57.3029 70.127 57.3073 68.0121C57.3073 67.2357 57.1586 66.5088 56.9604 65.815L68.6068 54.4824C69.2676 54.6641 69.9615 54.7963 70.6718 54.7963C72.7902 54.7963 74.8218 53.9547 76.3197 52.4568C77.8176 50.9589 78.6592 48.9273 78.6592 46.8089C78.6592 44.6905 77.8176 42.6589 76.3197 41.161C74.8218 39.6631 72.7902 38.8216 70.6718 38.8216ZM70.6883 5.31938C71.3937 5.31938 72.0702 5.5996 72.569 6.09839C73.0678 6.59718 73.348 7.27368 73.348 7.97907C73.348 8.68447 73.0678 9.36097 72.569 9.85976C72.0702 10.3586 71.3937 10.6388 70.6883 10.6388C69.9829 10.6388 69.3064 10.3586 68.8077 9.85976C68.3089 9.36097 68.0287 8.68447 68.0287 7.97907C68.0287 7.27368 68.3089 6.59718 68.8077 6.09839C69.3064 5.5996 69.9829 5.31938 70.6883 5.31938ZM49.3447 30.033C48.6393 30.033 47.9628 29.7528 47.464 29.254C46.9653 28.7552 46.685 28.0787 46.685 27.3733C46.685 26.668 46.9653 25.9915 47.464 25.4927C47.9628 24.9939 48.6393 24.7137 49.3447 24.7137C50.0501 24.7137 50.7266 24.9939 51.2254 25.4927C51.7242 25.9915 52.0044 26.668 52.0044 27.3733C52.0044 28.0787 51.7242 28.7552 51.2254 29.254C50.7266 29.7528 50.0501 30.033 49.3447 30.033ZM49.3447 70.6388C48.6393 70.6388 47.9628 70.3585 47.464 69.8598C46.9653 69.361 46.685 68.6845 46.685 67.9791C46.685 67.2737 46.9653 66.5972 47.464 66.0984C47.9628 65.5996 48.6393 65.3194 49.3447 65.3194C50.0501 65.3194 50.7266 65.5996 51.2254 66.0984C51.7242 66.5972 52.0044 67.2737 52.0044 67.9791C52.0044 68.6845 51.7242 69.361 51.2254 69.8598C50.7266 70.3585 50.0501 70.6388 49.3447 70.6388ZM70.6883 49.4604C69.9829 49.4604 69.3064 49.1801 68.8077 48.6813C68.3089 48.1826 68.0287 47.5061 68.0287 46.8007C68.0287 46.0953 68.3089 45.4188 68.8077 44.92C69.3064 44.4212 69.9829 44.141 70.6883 44.141C71.3937 44.141 72.0702 44.4212 72.569 44.92C73.0678 45.4188 73.348 46.0953 73.348 46.8007C73.348 47.5061 73.0678 48.1826 72.569 48.6813C72.0702 49.1801 71.3937 49.4604 70.6883 49.4604Z" fill="url(#paint0_linear_41_3871)"/>
<defs>
<linearGradient id="paint0_linear_41_3871" x1="14.0419" y1="59.9917" x2="105.958" y2="59.9917" gradientUnits="userSpaceOnUse">
<stop stop-color="#FE0C0B"/>
<stop offset="1" stop-color="#140F18"/>
</linearGradient>
</defs>
</svg>
