<svg width="120" height="120" viewBox="0 0 120 120" fill="none" xmlns="http://www.w3.org/2000/svg">
<g clip-path="url(#clip0_41_3873)">
<path d="M104.31 28.9612C101.358 26.0972 97.6498 24.2126 93.6204 23.4853C92.7141 17.6437 89.8735 12.2669 85.4232 8.07701C80.1326 3.09654 73.1497 0.353882 65.7607 0.353882C57.0169 0.353882 48.916 4.20185 43.5929 10.7669C42.6111 10.6315 41.6175 10.5635 40.6196 10.5635C35.625 10.5635 30.788 12.2929 26.9991 15.4336C23.783 18.0996 21.4868 21.6344 20.3949 25.5478C13.8457 28.9877 9.71887 35.609 9.71887 42.9412C9.71887 51.4228 15.2595 58.6734 23.0199 61.4857V69.8906H30.8459V62.7361H33.5133C33.5086 62.8765 33.5035 63.0168 33.5035 63.1579C33.5035 68.2755 36.6225 72.6776 41.059 74.5647C41.2676 77.7431 42.7796 80.5699 45.0647 82.5166V87.8829H52.8908V85.2379C55.6076 85.1395 58.0847 84.0902 60 82.4123C61.9154 84.0902 64.3922 85.1397 67.1093 85.2379V87.8829H74.9354V82.5166C77.2205 80.5699 78.7322 77.7431 78.9411 74.5647C83.3778 72.6776 86.4966 68.2755 86.4966 63.1579C86.4966 63.0168 86.4914 62.8765 86.4868 62.7361H89.1544V69.8904H96.9804V61.4857C104.741 58.6736 110.281 51.4233 110.281 42.9412C110.281 37.6624 108.16 32.6974 104.31 28.9612ZM56.0869 73.8077C56.0869 75.8008 54.4653 77.4222 52.4724 77.4222C50.9426 77.4222 49.6348 76.4658 49.1079 75.1204C51.3851 74.5069 53.4673 73.2504 55.0772 71.4726L49.2765 66.2189C48.3997 67.1873 47.1978 67.7205 45.893 67.7205C43.3768 67.7205 41.33 65.6735 41.33 63.1575C41.33 63.13 41.3332 63.1029 41.334 63.0757C42.7463 63.6368 44.2836 63.9487 45.8932 63.9487V56.1227C43.377 56.1227 41.3302 54.0757 41.3302 51.5597C41.3302 50.0018 42.1283 48.6108 43.3418 47.7851C44.6246 49.4911 46.3807 50.8458 48.4552 51.6241L51.204 44.2966C49.8007 43.7702 48.8583 42.4092 48.8583 40.9099C48.8583 38.9165 50.4802 37.2951 52.4731 37.2951C54.466 37.2951 56.0874 38.917 56.0874 40.9101V73.8077H56.0869ZM74.1075 67.7207C72.8028 67.7207 71.6011 67.1876 70.7241 66.2191L64.9233 71.4729C66.5333 73.2501 68.6154 74.5071 70.8926 75.1207C70.3657 76.466 69.0579 77.4225 67.5282 77.4225C65.5346 77.4222 63.9132 75.8006 63.9132 73.8077V40.9099C63.9132 38.9165 65.5348 37.2951 67.5277 37.2951C69.5208 37.2951 71.1425 38.9168 71.1425 40.9099C71.1425 42.4094 70.2 43.7704 68.7968 44.2966L71.5456 51.6241C73.62 50.846 75.3762 49.4913 76.659 47.7851C77.8725 48.6108 78.6706 50.0018 78.6706 51.5597C78.6706 54.0757 76.6236 56.1227 74.1075 56.1227V63.9487C75.7175 63.9487 77.2547 63.6368 78.6671 63.0757C78.6675 63.1031 78.6711 63.13 78.6711 63.1575C78.6708 65.6737 76.6238 67.7207 74.1075 67.7207ZM89.8341 54.9098H86.0328C86.3328 53.8434 86.4968 52.7205 86.4968 51.5597C86.4968 46.4892 83.3904 42.0567 78.9415 40.1569C78.552 34.1983 73.5832 29.4691 67.5279 29.4691C64.6472 29.4691 62.0136 30.5419 60.0003 32.3055C57.9865 30.5419 55.3533 29.4691 52.4726 29.4691C46.4173 29.4691 41.4486 34.1983 41.059 40.1569C36.6101 42.0567 33.5037 46.4892 33.5037 51.5597C33.5037 52.7208 33.6678 53.8434 33.9678 54.9098H30.1669C23.2072 54.9098 17.5451 49.5408 17.5451 42.9415C17.5451 38.1232 20.57 33.7947 25.2509 31.9146L27.2986 31.0922L27.6542 28.9141C28.6343 22.9141 34.208 18.3895 40.6196 18.3895C41.8519 18.3895 43.0704 18.551 44.2411 18.869L46.9709 19.6108L48.5311 17.2516C52.2877 11.5711 58.7288 8.18013 65.7607 8.18013C71.1479 8.18013 76.2256 10.1674 80.0588 13.7756C83.8439 17.339 85.9908 22.0886 86.104 27.1495L86.1886 30.9356L89.9754 30.975C96.8569 31.0465 102.455 36.4148 102.455 42.9417C102.455 49.5408 96.7936 54.9098 89.8341 54.9098Z" fill="url(#paint0_linear_41_3873)"/>
<path d="M23.0198 77.7168V81.63H19.5478C18.0122 77.9613 14.3855 75.3768 10.1663 75.3768C4.56047 75.3768 0 79.9373 0 85.5428C0 91.1484 4.56023 95.7089 10.166 95.7089C14.3855 95.7089 18.012 93.1244 19.5476 89.4557H30.8459V77.7166H23.0198V77.7168ZM10.166 87.8826C8.87578 87.8826 7.82602 86.8328 7.82602 85.5426C7.82602 84.2524 8.87555 83.2026 10.166 83.2026C11.4565 83.2026 12.506 84.2524 12.506 85.5426C12.506 86.8328 11.4563 87.8826 10.166 87.8826Z" fill="url(#paint1_linear_41_3873)"/>
<path d="M109.834 75.3768C105.615 75.3768 101.988 77.9613 100.452 81.63H96.9802V77.7168H89.1539V89.456H100.452C101.988 93.1246 105.615 95.7091 109.834 95.7091C115.439 95.7091 120 91.1486 120 85.5431C120 79.9373 115.44 75.3768 109.834 75.3768ZM109.834 87.8826C108.544 87.8826 107.494 86.8328 107.494 85.5426C107.494 84.2524 108.544 83.2026 109.834 83.2026C111.124 83.2026 112.174 84.2524 112.174 85.5426C112.174 86.8328 111.124 87.8826 109.834 87.8826Z" fill="url(#paint2_linear_41_3873)"/>
<path d="M52.8907 100.098V95.7086H45.0647V100.098C41.396 101.634 38.8115 105.261 38.8115 109.48C38.8115 115.085 43.3718 119.646 48.9775 119.646C54.5833 119.646 59.1436 115.085 59.1436 109.48C59.1438 105.261 56.5593 101.634 52.8907 100.098ZM48.9778 111.82C47.6875 111.82 46.6378 110.77 46.6378 109.48C46.6378 108.19 47.6873 107.14 48.9778 107.14C50.2682 107.14 51.3178 108.19 51.3178 109.48C51.3178 110.77 50.268 111.82 48.9778 111.82Z" fill="url(#paint3_linear_41_3873)"/>
<path d="M74.9353 100.098V95.7086H67.1093V100.098C63.4407 101.634 60.8562 105.261 60.8562 109.48C60.8562 115.085 65.4164 119.646 71.0222 119.646C76.628 119.646 81.1882 115.085 81.1882 109.48C81.1885 105.261 78.604 101.634 74.9353 100.098ZM71.0222 111.82C69.732 111.82 68.6822 110.77 68.6822 109.48C68.6822 108.19 69.7317 107.14 71.0222 107.14C72.3127 107.14 73.3622 108.19 73.3622 109.48C73.3622 110.77 72.3125 111.82 71.0222 111.82Z" fill="url(#paint4_linear_41_3873)"/>
</g>
<defs>
<linearGradient id="paint0_linear_41_3873" x1="9.71887" y1="44.1184" x2="110.281" y2="44.1184" gradientUnits="userSpaceOnUse">
<stop stop-color="#FE0C0B"/>
<stop offset="1" stop-color="#140F18"/>
</linearGradient>
<linearGradient id="paint1_linear_41_3873" x1="0" y1="85.5428" x2="30.8459" y2="85.5428" gradientUnits="userSpaceOnUse">
<stop stop-color="#FE0C0B"/>
<stop offset="1" stop-color="#140F18"/>
</linearGradient>
<linearGradient id="paint2_linear_41_3873" x1="89.1539" y1="85.543" x2="120" y2="85.543" gradientUnits="userSpaceOnUse">
<stop stop-color="#FE0C0B"/>
<stop offset="1" stop-color="#140F18"/>
</linearGradient>
<linearGradient id="paint3_linear_41_3873" x1="38.8115" y1="107.677" x2="59.1436" y2="107.677" gradientUnits="userSpaceOnUse">
<stop stop-color="#FE0C0B"/>
<stop offset="1" stop-color="#140F18"/>
</linearGradient>
<linearGradient id="paint4_linear_41_3873" x1="60.8562" y1="107.677" x2="81.1882" y2="107.677" gradientUnits="userSpaceOnUse">
<stop stop-color="#FE0C0B"/>
<stop offset="1" stop-color="#140F18"/>
</linearGradient>
<clipPath id="clip0_41_3873">
<rect width="120" height="120" fill="white"/>
</clipPath>
</defs>
</svg>
