<svg width="120" height="120" viewBox="0 0 120 120" fill="none" xmlns="http://www.w3.org/2000/svg">
<g clip-path="url(#clip0_41_3929)">
<path d="M99.51 65.805C100.754 57.8414 99.5243 49.6879 95.9871 42.4453C92.4499 35.2028 86.7755 29.2201 79.73 25.305C79.73 25.2 79.76 25.105 79.76 25C79.76 19.7593 77.6782 14.7333 73.9725 11.0276C70.2667 7.32184 65.2407 5.23999 60 5.23999C54.7594 5.23999 49.7333 7.32184 46.0276 11.0276C42.3219 14.7333 40.24 19.7593 40.24 25C40.24 25.1 40.27 25.2 40.27 25.3C33.2237 29.2154 27.5487 35.1989 24.0114 42.4425C20.4741 49.686 19.245 57.8406 20.49 65.805C17.3294 66.539 14.3986 68.0411 11.9572 70.1784C9.51583 72.3157 7.63924 75.0221 6.49368 78.0579C5.34813 81.0936 4.96897 84.3651 5.38979 87.5824C5.81061 90.7998 7.01842 93.8636 8.90624 96.5027C10.794 99.1417 13.3036 101.274 16.2125 102.712C19.1215 104.149 22.3401 104.847 25.5831 104.743C28.8262 104.64 31.9937 103.738 34.805 102.118C37.6162 100.498 39.9845 98.2091 41.7 95.455C47.3423 98.4262 53.6232 99.9789 60 99.9789C66.3768 99.9789 72.6577 98.4262 78.3 95.455C80.0163 98.2065 82.3844 100.492 85.1948 102.11C88.0052 103.728 91.1712 104.629 94.4125 104.731C97.6537 104.834 100.87 104.135 103.777 102.698C106.684 101.261 109.192 99.1297 111.079 96.4921C112.966 93.8546 114.173 90.7926 114.594 87.5772C115.015 84.3617 114.637 81.0921 113.493 78.0577C112.349 75.0233 110.475 72.3177 108.036 70.1805C105.597 68.0434 102.668 66.5405 99.51 65.805ZM60 10.255C62.9151 10.255 65.7647 11.1193 68.1886 12.7388C70.6125 14.3582 72.5018 16.66 73.6175 19.3531C74.7333 22.0462 75.0255 25.0096 74.4572 27.8688C73.8888 30.7279 72.4855 33.3544 70.4246 35.416C68.3636 37.4776 65.7377 38.8818 62.8787 39.4512C60.0198 40.0205 57.0562 39.7293 54.3627 38.6144C51.6693 37.4995 49.3669 35.6111 47.7466 33.1877C46.1263 30.7644 45.261 27.9151 45.26 25C45.264 21.0919 46.8182 17.345 49.5817 14.5816C52.3451 11.8182 56.092 10.259 60 10.255ZM25 99.745C22.085 99.745 19.2353 98.8806 16.8115 97.2612C14.3876 95.6418 12.4983 93.34 11.3825 90.6469C10.2667 87.9538 9.97455 84.9903 10.5429 82.1312C11.1112 79.272 12.5146 76.6456 14.5755 74.584C16.6364 72.5224 19.2624 71.1181 22.1213 70.5488C24.9803 69.9795 27.9439 70.2707 30.6373 71.3856C33.3308 72.5004 35.6332 74.3889 37.2535 76.8122C38.8737 79.2356 39.739 82.0849 39.74 85C39.7361 88.9081 38.1818 92.6549 35.4184 95.4184C32.655 98.1818 28.9081 99.741 25 99.745ZM43.75 90.945C44.3932 89.0278 44.734 87.0221 44.76 85C44.7507 79.8382 42.722 74.885 39.1078 71.1997C35.4935 67.5144 30.5807 65.3897 25.42 65.28C25.1421 63.5334 24.995 61.7685 24.98 60C24.9815 54.132 26.4631 48.3592 29.2878 43.2158C32.1125 38.0724 36.189 33.7247 41.14 30.575C42.3205 34.6647 44.7984 38.2599 48.2002 40.8186C51.602 43.3773 55.7434 44.761 60 44.761C64.2567 44.761 68.398 43.3773 71.7998 40.8186C75.2016 38.2599 77.6795 34.6647 78.86 30.575C83.811 33.7247 87.8875 38.0724 90.7122 43.2158C93.5369 48.3592 95.0186 54.132 95.02 60C95.0051 61.7685 94.858 63.5334 94.58 65.28C89.4194 65.3897 84.5066 67.5144 80.8923 71.1997C77.278 74.885 75.2493 79.8382 75.24 85C75.2666 87.0204 75.6073 89.0244 76.25 90.94C71.2205 93.5157 65.6507 94.8589 60 94.8589C54.3493 94.8589 48.7796 93.5207 43.75 90.945ZM95 99.74C92.0847 99.74 89.2349 98.8755 86.8109 97.2558C84.3869 95.6362 82.4977 93.3341 81.382 90.6407C80.2664 87.9474 79.9745 84.9836 80.5433 82.1244C81.112 79.2651 82.5158 76.6387 84.5773 74.5772C86.6387 72.5158 89.2651 71.112 92.1244 70.5432C94.9837 69.9745 97.9474 70.2664 100.641 71.382C103.334 72.4976 105.636 74.3869 107.256 76.8109C108.876 79.2349 109.74 82.0847 109.74 85C109.736 88.9081 108.182 92.6549 105.418 95.4184C102.655 98.1818 98.9081 99.736 95 99.74Z" fill="url(#paint0_linear_41_3929)"/>
</g>
<defs>
<linearGradient id="paint0_linear_41_3929" x1="5.22314" y1="54.9968" x2="114.761" y2="54.9968" gradientUnits="userSpaceOnUse">
<stop stop-color="#FE0C0B"/>
<stop offset="1" stop-color="#140F18"/>
</linearGradient>
<clipPath id="clip0_41_3929">
<rect width="120" height="120" fill="white"/>
</clipPath>
</defs>
</svg>
