<svg width="120" height="120" viewBox="0 0 120 120" fill="none" xmlns="http://www.w3.org/2000/svg">
<path d="M87.8555 64.3008L68.5664 75.0117V96.4453L87.8555 107.156L107.145 96.4453V75.0117L87.8555 64.3008ZM98.5664 91.4062L87.8555 97.3594L77.1445 91.4062V80.0625L87.8555 74.1094L98.5664 80.0625V91.4062Z" fill="url(#paint0_linear_41_3932)"/>
<path d="M83.6252 86.4206C83.7153 86.9766 83.9141 87.5093 84.2102 87.9885C84.5063 88.4676 84.8939 88.8838 85.3508 89.2132C85.8077 89.5425 86.325 89.7787 86.8731 89.9081C87.4213 90.0376 87.9896 90.0578 88.5456 89.9676C89.1016 89.8774 89.6343 89.6786 90.1135 89.3826C90.5926 89.0865 91.0088 88.6989 91.3382 88.242C91.6675 87.7851 91.9037 87.2678 92.0331 86.7196C92.1626 86.1715 92.1828 85.6032 92.0926 85.0472C92.0024 84.4912 91.8036 83.9584 91.5076 83.4793C91.2115 83.0001 90.8239 82.584 90.367 82.2546C89.9101 81.9252 89.3928 81.6891 88.8446 81.5596C88.2965 81.4302 87.7282 81.41 87.1722 81.5002C86.6162 81.5903 86.0834 81.7891 85.6043 82.0852C85.1251 82.3813 84.709 82.7689 84.3796 83.2258C84.0502 83.6827 83.8141 84.2 83.6846 84.7481C83.5552 85.2963 83.535 85.8646 83.6252 86.4206Z" fill="url(#paint1_linear_41_3932)"/>
<path d="M80.707 56.2266C79.2188 55.5 77.6953 54.8438 76.1484 54.2812C81.9844 49.5586 85.7109 42.3516 85.7109 34.2891C85.7109 20.1094 74.1797 8.57812 60 8.57812C45.8203 8.57812 34.2891 20.1094 34.2891 34.2891C34.2891 42.3633 38.0273 49.582 43.8633 54.293C25.793 60.9023 12.8555 78.2578 12.8555 98.5898H21.4219C21.4219 77.3203 38.7305 60.0234 59.9883 60.0234C65.9297 60.0234 71.625 61.3359 76.9219 63.9258L80.707 56.2266ZM60 17.1445C69.457 17.1445 77.1445 24.832 77.1445 34.2891C77.1445 43.7461 69.457 51.4336 60 51.4336C50.543 51.4336 42.8555 43.7461 42.8555 34.2891C42.8555 24.832 50.5547 17.1445 60 17.1445Z" fill="url(#paint2_linear_41_3932)"/>
<defs>
<linearGradient id="paint0_linear_41_3932" x1="68.5664" y1="85.7285" x2="107.145" y2="85.7285" gradientUnits="userSpaceOnUse">
<stop stop-color="#f22b0a"/>
<stop offset="1" stop-color="#140F18"/>
</linearGradient>
<linearGradient id="paint1_linear_41_3932" x1="83.5698" y1="85.7339" x2="92.148" y2="85.7339" gradientUnits="userSpaceOnUse">
<stop stop-color="#f22b0a"/>
<stop offset="1" stop-color="#140F18"/>
</linearGradient>
<linearGradient id="paint2_linear_41_3932" x1="12.8555" y1="53.584" x2="85.7109" y2="53.584" gradientUnits="userSpaceOnUse">
<stop stop-color="#f22b0a"/>
<stop offset="1" stop-color="#140F18"/>
</linearGradient>
</defs>
</svg>
