<svg width="120" height="120" viewBox="0 0 120 120" fill="none" xmlns="http://www.w3.org/2000/svg">
<g clip-path="url(#clip0_41_3839)">
<path d="M114 46.75L102.5 37.25V18.75C102.492 18.2706 102.346 17.8036 102.081 17.4047C101.815 17.0058 101.439 16.6917 101 16.5L76.25 5.25H75.25L73.75 5.75L60 14.75L46.25 5.5L44.75 5H43.75L19 16.5C18.5606 16.6917 18.1855 17.0058 17.9196 17.4047C17.6536 17.8036 17.508 18.2706 17.5 18.75V37.25L6.00004 46.75C5.65312 46.9459 5.37259 47.2409 5.19442 47.5972C5.01626 47.9535 4.94857 48.3549 5.00004 48.75V71.25C4.94857 71.6451 5.01626 72.0465 5.19442 72.4028C5.37259 72.7591 5.65312 73.0541 6.00004 73.25L17.5 82.75V101.25C17.508 101.729 17.6536 102.196 17.9196 102.595C18.1855 102.994 18.5606 103.308 19 103.5L43.75 114.75H44.75L46.25 114.25L60 105.25L73.75 114.5L75.25 115H76.25L101 103.75C101.439 103.558 101.815 103.244 102.081 102.845C102.346 102.446 102.492 101.979 102.5 101.5V82.75L114 73.25C114.307 73.073 114.561 72.8176 114.737 72.5102C114.912 72.2027 115.003 71.8541 115 71.5V48.5C115.003 48.1459 114.912 47.7973 114.737 47.4898C114.561 47.1824 114.307 46.9271 114 46.75ZM101.25 63.75H105V67.75L96.25 74.75L95.25 75.5L94.25 75C93.8143 74.7495 93.3296 74.5958 92.8291 74.5494C92.3287 74.503 91.824 74.5649 91.3496 74.7309C90.8752 74.897 90.4421 75.1633 90.0798 75.5117C89.7175 75.8601 89.4345 76.2824 89.25 76.75C88.8015 77.615 88.7072 78.6206 88.9872 79.5538C89.2672 80.4871 89.8994 81.2748 90.75 81.75L92.5 82.5V96L76 103.75L65.5 96.75L63.75 95.5V63.75H67.5C68.4946 63.75 69.4484 63.3549 70.1517 62.6516C70.8549 61.9484 71.25 60.9946 71.25 60C71.25 59.0054 70.8549 58.0516 70.1517 57.3484C69.4484 56.6451 68.4946 56.25 67.5 56.25H63.75V24.25L65.5 23L76 16L92.5 23.75V37.25L90.75 38C89.8994 38.4752 89.2672 39.2629 88.9872 40.1962C88.7072 41.1294 88.8015 42.135 89.25 43C89.5019 43.6589 89.947 44.2262 90.527 44.6277C91.1069 45.0292 91.7947 45.2461 92.5 45.25L94.25 44.75L95.25 44.25L96.25 45L105 52.25V56.25H101.25C100.255 56.25 99.3016 56.6451 98.5984 57.3484C97.8951 58.0516 97.5 59.0054 97.5 60C97.5 60.9946 97.8951 61.9484 98.5984 62.6516C99.3016 63.3549 100.255 63.75 101.25 63.75ZM52.5 63.75H56.25V95.75L54.5 97L44 104L27.5 96.25V82.75L29.25 82C30.1006 81.5248 30.7329 80.7371 31.0129 79.8038C31.2928 78.8706 31.1986 77.865 30.75 77C30.5656 76.5324 30.2826 76.1101 29.9203 75.7617C29.558 75.4133 29.1249 75.147 28.6505 74.9809C28.176 74.8149 27.6714 74.753 27.1709 74.7994C26.6704 74.8458 26.1858 74.9995 25.75 75.25L24.75 75.75L23.75 75L15 67.75V63.75H18.75C19.7446 63.75 20.6984 63.3549 21.4017 62.6516C22.1049 61.9484 22.5 60.9946 22.5 60C22.5 59.0054 22.1049 58.0516 21.4017 57.3484C20.6984 56.6451 19.7446 56.25 18.75 56.25H15V52.25L23.75 45.25L24.75 44.5L25.75 45L27.5 45.5C28.2054 45.4961 28.8931 45.2792 29.4731 44.8777C30.053 44.4762 30.4981 43.9089 30.75 43.25C31.1986 42.385 31.2928 41.3794 31.0129 40.4462C30.7329 39.5129 30.1006 38.7252 29.25 38.25L27.5 37.5V23.75L44 16L54.5 23L56.25 24.25V56.25H52.5C51.5055 56.25 50.5516 56.6451 49.8484 57.3484C49.1451 58.0516 48.75 59.0054 48.75 60C48.75 60.9946 49.1451 61.9484 49.8484 62.6516C50.5516 63.3549 51.5055 63.75 52.5 63.75Z" fill="url(#paint0_linear_41_3839)"/>
<path d="M34.75 24.7501C34.1418 25.5378 33.812 26.5049 33.812 27.5001C33.812 28.4952 34.1418 29.4623 34.75 30.2501L41.25 36.5001V43.5001L31.25 53.5001V66.5001L41.25 76.5001V83.5001L34.75 89.7501C34.1418 90.5378 33.812 91.5049 33.812 92.5001C33.812 93.4952 34.1418 94.4623 34.75 95.2501C35.118 95.5926 35.551 95.8576 36.0234 96.0294C36.4959 96.2011 36.998 96.2762 37.5 96.2501C38.002 96.2762 38.5041 96.2011 38.9766 96.0294C39.449 95.8576 39.882 95.5926 40.25 95.2501L48.75 86.5001V73.5001L38.75 63.5001V56.5001L48.75 46.5001V33.5001L40.25 24.7501C39.4623 24.1419 38.4952 23.812 37.5 23.812C36.5048 23.812 35.5377 24.1419 34.75 24.7501Z" fill="url(#paint1_linear_41_3839)"/>
<path d="M78.75 36.5001L85.25 30.2501C85.8582 29.4623 86.188 28.4952 86.188 27.5001C86.188 26.5049 85.8582 25.5378 85.25 24.7501C84.4623 24.1419 83.4952 23.812 82.5 23.812C81.5048 23.812 80.5377 24.1419 79.75 24.7501L71.25 33.5001V46.5001L81.25 56.5001V63.5001L71.25 73.5001V86.5L79.75 95.2501C80.518 95.9019 81.4926 96.2597 82.5 96.2597C83.5074 96.2597 84.482 95.9019 85.25 95.2501C85.8582 94.4623 86.188 93.4952 86.188 92.5001C86.188 91.5049 85.8582 90.5378 85.25 89.7501L78.75 83.5001V76.5001L88.75 66.5001V53.5001L78.75 43.5001V36.5001Z" fill="url(#paint2_linear_41_3839)"/>
</g>
<defs>
<linearGradient id="paint0_linear_41_3839" x1="4.98328" y1="60" x2="115" y2="60" gradientUnits="userSpaceOnUse">
<stop stop-color="#f22b0a"/>
<stop offset="1" stop-color="#140F18"/>
</linearGradient>
<linearGradient id="paint1_linear_41_3839" x1="31.25" y1="60.0336" x2="48.75" y2="60.0336" gradientUnits="userSpaceOnUse">
<stop stop-color="#f22b0a"/>
<stop offset="1" stop-color="#140F18"/>
</linearGradient>
<linearGradient id="paint2_linear_41_3839" x1="71.25" y1="60.0359" x2="88.75" y2="60.0359" gradientUnits="userSpaceOnUse">
<stop stop-color="#f22b0a"/>
<stop offset="1" stop-color="#140F18"/>
</linearGradient>
<clipPath id="clip0_41_3839">
<rect width="120" height="120" fill="white"/>
</clipPath>
</defs>
</svg>
