<svg width="120" height="120" viewBox="0 0 120 120" fill="none" xmlns="http://www.w3.org/2000/svg">
<g clip-path="url(#clip0_41_3923)">
<path d="M113.191 51.1305C111.344 49.7687 109.038 48.0678 108.736 46.9462C108.407 45.7148 109.581 43.0019 110.53 40.8262C112.153 37.0854 113.833 33.2193 111.97 29.9949C110.082 26.7288 105.856 26.2541 101.765 25.795C99.4382 25.5341 96.5374 25.2107 95.666 24.3394C94.7946 23.468 94.4713 20.5723 94.2104 18.2402C93.7513 14.1498 93.2712 9.92372 90.0105 8.03494C86.781 6.16182 82.92 7.84711 79.1843 9.47494C77.0138 10.4192 74.3113 11.5931 73.0643 11.2698C71.9373 10.9724 70.2364 8.66641 68.8747 6.81407C66.5217 3.62079 63.8503 0 59.9999 0C56.1494 0 53.4781 3.62079 51.1302 6.80869C49.7685 8.65565 48.0676 10.9616 46.946 11.2644C45.7146 11.5826 43.0016 10.4192 40.826 9.46956C37.0902 7.84173 33.2242 6.16182 29.9947 8.02956C26.7285 9.91834 26.2538 14.1444 25.7948 18.2348C25.5338 20.5618 25.2105 23.4626 24.3391 24.334C23.4677 25.2054 20.5721 25.5287 18.2399 25.7896C14.1496 26.2487 9.92347 26.7288 8.0347 29.9895C6.16695 33.2088 7.84687 37.0748 9.4747 40.8157C10.419 42.9914 11.5983 45.6992 11.2696 46.9357C10.9722 48.0627 8.66616 49.7636 6.81383 51.1253C3.62079 53.4783 0 56.1494 0 59.9999C0 63.8503 3.62079 66.5217 6.80869 68.8695C8.65565 70.2313 10.9616 71.9322 11.2644 73.0538C11.5931 74.2852 10.4192 76.9981 9.46956 79.1738C7.84687 82.9146 6.16695 86.7807 8.02956 90.0051C9.91834 93.2712 14.1444 93.7459 18.2348 94.205C20.5618 94.4659 23.4626 94.7893 24.334 95.6606C25.2054 96.532 25.5287 99.4328 25.7896 101.76C26.2487 105.85 26.7236 110.076 29.9844 111.965C33.2036 113.828 37.0748 112.153 40.8157 110.525C42.9862 109.581 45.6992 108.407 46.9357 108.73C48.0627 109.028 49.7636 111.334 51.1253 113.186C53.4783 116.379 56.1497 120 60.0001 120C63.8506 120 66.5219 116.379 68.8749 113.191C70.2366 111.344 71.9376 109.038 73.0592 108.735C74.2852 108.396 77.0035 109.581 79.1792 110.53C82.92 112.153 86.7756 113.838 90.0105 111.97C93.2766 110.081 93.7513 105.855 94.2104 101.765C94.4659 99.4328 94.7946 96.5372 95.6609 95.6658C96.5269 94.7944 99.4279 94.4711 101.76 94.2101C105.85 93.7511 110.077 93.271 111.965 90.0102C113.833 86.791 112.153 82.9249 110.525 79.1841C109.581 77.0084 108.402 74.3006 108.73 73.0641C109.028 71.9371 111.334 70.2361 113.186 68.8744C116.379 66.5214 120 63.8501 120 59.9996C120 56.1492 116.379 53.4783 113.191 51.1305ZM110.097 64.6747C107.332 66.7147 104.468 68.8226 103.696 71.7131C102.892 74.7078 104.342 78.0417 105.746 81.266C106.643 83.3321 108 86.452 107.457 87.3965C106.889 88.3826 103.455 88.7688 101.186 89.0244C97.7216 89.4157 94.1372 89.8175 91.9772 91.9775C89.8172 94.1375 89.4208 97.7167 89.0295 101.181C88.7739 103.451 88.3878 106.883 87.4017 107.452C86.452 108.005 83.3321 106.638 81.266 105.741C78.0417 104.338 74.7129 102.882 71.7131 103.691C68.8226 104.463 66.7149 107.327 64.6747 110.092C63.2922 111.955 61.2156 114.783 59.9999 114.783C58.7841 114.783 56.7024 111.96 55.325 110.092C53.2851 107.327 51.1772 104.463 48.2867 103.691C47.6919 103.529 47.0866 103.461 46.471 103.461C43.9772 103.461 41.3215 104.614 38.7389 105.751C36.6676 106.649 33.5423 108.01 32.6032 107.463C31.6171 106.889 31.231 103.461 30.9805 101.191C30.5892 97.727 30.1874 94.1426 28.0274 91.9826C25.8674 89.8226 22.2831 89.4208 18.8188 89.0295C16.5492 88.7739 13.1163 88.3878 12.5474 87.4017C11.9996 86.4574 13.3613 83.3321 14.2586 81.266C15.6568 78.0417 17.1073 74.7078 16.3091 71.7131C15.537 68.8226 12.6726 66.7149 9.90733 64.6747C8.04472 63.2922 5.21682 61.2105 5.21682 59.9999C5.21682 58.7893 8.04472 56.7078 9.89681 55.3304C12.6621 53.2905 15.5265 51.1826 16.2985 48.2921C17.1019 45.2974 15.6517 41.9634 14.2481 38.7391C13.3508 36.673 11.9942 33.5531 12.5369 32.6086C13.1109 31.6225 16.5387 31.2363 18.8083 30.9808C22.2725 30.5895 25.8569 30.1876 28.0169 28.0276C30.1769 25.8676 30.5787 22.2833 30.97 18.819C31.2256 16.5495 31.6117 13.1165 32.5978 12.5477C33.5526 12.005 36.6674 13.3616 38.7335 14.2589C41.9578 15.6571 45.2812 17.1076 48.2864 16.3093C51.177 15.5372 53.2846 12.6729 55.3248 9.90758C56.7073 8.04497 58.789 5.21706 59.9996 5.21706C61.2102 5.21706 63.2917 8.04497 64.6691 9.89706C66.709 12.6624 68.8169 15.5267 71.7075 16.2988C74.7075 17.1076 78.0361 15.6519 81.2604 14.2484C83.3265 13.3511 86.4464 11.9944 87.3909 12.5371C88.377 13.1111 88.7632 16.539 89.0187 18.8085C89.41 22.2728 89.8119 25.8571 91.9719 28.0171C94.1319 30.1771 97.7162 30.5789 101.18 30.9703C103.45 31.2258 106.883 31.612 107.452 32.5981C108 33.5423 106.638 36.6676 105.741 38.7337C104.342 41.9581 102.892 45.292 103.69 48.2867C104.462 51.1772 107.327 53.2849 110.092 55.325C111.955 56.7075 114.782 58.7893 114.782 59.9999C114.782 61.2105 111.955 63.2922 110.097 64.6747Z" fill="url(#paint0_linear_41_3923)"/>
<path d="M96.8191 46.9722L74.6764 44.5148L62.285 22.2156C61.3667 20.5616 58.6432 20.5616 57.7251 22.2156L45.3337 44.5148L23.1911 46.9722C22.1945 47.0869 21.3441 47.7599 21.0154 48.7044C20.6816 49.6487 20.9215 50.7028 21.631 51.4123L38.9058 68.6871L33.9651 93.4016C33.7668 94.3982 34.1635 95.4208 34.9825 96.0207C35.807 96.626 36.9026 96.6886 37.7894 96.1929L59.9998 83.8538L82.2102 96.1929C82.6067 96.412 83.0449 96.5215 83.4781 96.5215C84.0208 96.5215 84.5632 96.3545 85.0276 96.0207C85.8467 95.4208 86.2434 94.398 86.045 93.4016L81.1041 68.6869L98.3789 51.412C99.0884 50.7025 99.3286 49.6485 98.9945 48.7042C98.6607 47.7548 97.8154 47.0817 96.8191 46.9722ZM76.4189 65.9844C75.8034 66.6054 75.5319 67.487 75.7041 68.3428L79.8155 88.8941L61.2676 78.5898C60.8712 78.3707 60.4329 78.2611 59.9998 78.2611C59.5667 78.2611 59.1284 78.3707 58.732 78.5898L40.1842 88.8941L44.2956 68.3428C44.4626 67.487 44.1965 66.6002 43.5807 65.9844L29.1599 51.5583L47.2433 49.5497C48.0834 49.4557 48.8242 48.9654 49.2363 48.2244L59.9998 28.8521L70.7634 48.2244C71.1755 48.96 71.9165 49.4557 72.7563 49.5497L90.8397 51.5583L76.4189 65.9844Z" fill="url(#paint1_linear_41_3923)"/>
</g>
<defs>
<linearGradient id="paint0_linear_41_3923" x1="0" y1="59.9999" x2="120" y2="59.9999" gradientUnits="userSpaceOnUse">
<stop stop-color="#f22b0a"/>
<stop offset="1" stop-color="#140F18"/>
</linearGradient>
<linearGradient id="paint1_linear_41_3923" x1="20.8671" y1="58.7497" x2="99.143" y2="58.7497" gradientUnits="userSpaceOnUse">
<stop stop-color="#f22b0a"/>
<stop offset="1" stop-color="#140F18"/>
</linearGradient>
<clipPath id="clip0_41_3923">
<rect width="120" height="120" fill="white"/>
</clipPath>
</defs>
</svg>
