<svg width="87" height="80" viewBox="0 0 87 80" fill="none" xmlns="http://www.w3.org/2000/svg">
<rect y="0.335938" width="87" height="79" rx="6" fill="#f22b0a"/>
<path d="M43.0023 33.5859C41.212 33.5859 39.4952 34.2971 38.2293 35.563C36.9634 36.8288 36.2523 38.5457 36.2523 40.3359C36.2523 42.1262 36.9634 43.843 38.2293 45.1089C39.4952 46.3748 41.212 47.0859 43.0023 47.0859C44.7925 47.0859 46.5094 46.3748 47.7752 45.1089C49.0411 43.843 49.7523 42.1262 49.7523 40.3359C49.7523 38.5457 49.0411 36.8288 47.7752 35.563C46.5094 34.2971 44.7925 33.5859 43.0023 33.5859ZM43.0023 29.0859C45.9859 29.0859 48.8474 30.2712 50.9572 32.381C53.067 34.4908 54.2523 37.3523 54.2523 40.3359C54.2523 43.3196 53.067 46.1811 50.9572 48.2909C48.8474 50.4007 45.9859 51.5859 43.0023 51.5859C40.0186 51.5859 37.1571 50.4007 35.0473 48.2909C32.9375 46.1811 31.7523 43.3196 31.7523 40.3359C31.7523 37.3523 32.9375 34.4908 35.0473 32.381C37.1571 30.2712 40.0186 29.0859 43.0023 29.0859ZM57.6273 28.5234C57.6273 29.2694 57.3309 29.9847 56.8035 30.5122C56.276 31.0396 55.5607 31.3359 54.8148 31.3359C54.0688 31.3359 53.3535 31.0396 52.826 30.5122C52.2986 29.9847 52.0023 29.2694 52.0023 28.5234C52.0023 27.7775 52.2986 27.0621 52.826 26.5347C53.3535 26.0073 54.0688 25.7109 54.8148 25.7109C55.5607 25.7109 56.276 26.0073 56.8035 26.5347C57.3309 27.0621 57.6273 27.7775 57.6273 28.5234ZM43.0023 22.3359C37.4358 22.3359 36.5268 22.3517 33.937 22.4664C32.173 22.5497 30.9895 22.7859 29.8915 23.2134C28.9731 23.5518 28.1426 24.0924 27.4615 24.7952C26.7579 25.4761 26.2165 26.3066 25.8775 27.2252C25.45 28.3277 25.2138 29.5089 25.1328 31.2707C25.0158 33.7547 25 34.6232 25 40.3359C25 45.9047 25.0158 46.8114 25.1305 49.4012C25.2138 51.1629 25.45 52.3487 25.8753 53.4444C26.2578 54.4232 26.7078 55.1274 27.4548 55.8744C28.213 56.6304 28.9173 57.0827 29.8848 57.4562C30.9963 57.8859 32.1798 58.1244 33.9348 58.2054C36.4188 58.3224 37.2873 58.3359 43 58.3359C48.5688 58.3359 49.4755 58.3202 52.0653 58.2054C53.8248 58.1222 55.0083 57.8859 56.1085 57.4607C57.0269 57.1224 57.8574 56.5818 58.5385 55.8789C59.2968 55.1229 59.749 54.4187 60.1225 53.4489C60.55 52.3419 60.7885 51.1584 60.8695 49.3989C60.9865 46.9172 61 46.0464 61 40.3359C61 34.7694 60.9843 33.8604 60.8695 31.2707C60.7863 29.5112 60.5478 28.3232 60.1225 27.2252C59.7842 26.3068 59.2436 25.4763 58.5408 24.7952C57.8599 24.0916 57.0293 23.5502 56.1108 23.2112C55.0083 22.7837 53.8248 22.5474 52.0653 22.4664C49.5835 22.3494 48.715 22.3359 43 22.3359M43 17.8359C49.1133 17.8359 49.876 17.8584 52.2768 17.9709C54.6708 18.0834 56.3043 18.4592 57.7375 19.0172C59.2225 19.5887 60.4735 20.3627 61.7245 21.6114C62.8691 22.7358 63.7544 24.0965 64.3188 25.5984C64.8745 27.0317 65.2525 28.6652 65.365 31.0614C65.4708 33.4599 65.5 34.2227 65.5 40.3359C65.5 46.4492 65.4775 47.2119 65.365 49.6104C65.2525 52.0089 64.8745 53.6379 64.3188 55.0734C63.7544 56.5754 62.8691 57.936 61.7245 59.0604C60.6001 60.205 59.2394 61.0904 57.7375 61.6547C56.3043 62.2104 54.6708 62.5884 52.2768 62.7009C49.876 62.8067 49.1133 62.8359 43 62.8359C36.8868 62.8359 36.124 62.8134 33.7233 62.7009C31.3293 62.5884 29.698 62.2104 28.2625 61.6547C26.7606 61.0904 25.3999 60.205 24.2755 59.0604C23.1309 57.936 22.2456 56.5754 21.6813 55.0734C21.1233 53.6402 20.7475 52.0067 20.635 49.6104C20.527 47.2119 20.5 46.4492 20.5 40.3359C20.5 34.2227 20.5225 33.4599 20.635 31.0614C20.7475 28.6629 21.1233 27.0339 21.6813 25.5984C22.2456 24.0965 23.1309 22.7358 24.2755 21.6114C25.3999 20.4669 26.7606 19.5815 28.2625 19.0172C29.6958 18.4592 31.327 18.0834 33.7233 17.9709C36.1263 17.8652 36.889 17.8359 43.0023 17.8359" fill="white"/>
</svg>
