<svg width="87" height="80" viewBox="0 0 87 80" fill="none" xmlns="http://www.w3.org/2000/svg">
<rect y="0.335938" width="87" height="79" rx="6" fill="#FE0C0B"/>
<path d="M31.615 24.5857C31.6144 25.7792 31.1397 26.9236 30.2954 27.7671C29.451 28.6106 28.3062 29.0841 27.1127 29.0835C25.9193 29.0829 24.7749 28.6082 23.9314 27.7639C23.0879 26.9196 22.6144 25.7747 22.615 24.5812C22.6156 23.3878 23.0903 22.2434 23.9346 21.3999C24.7789 20.5564 25.9238 20.0829 27.1172 20.0835C28.3107 20.0841 29.4551 20.5588 30.2986 21.4031C31.1421 22.2474 31.6156 23.3923 31.615 24.5857ZM31.75 32.4157H22.75V60.5858H31.75V32.4157ZM45.97 32.4157H37.015V60.5858H45.88V45.8033C45.88 37.5682 56.6125 36.8032 56.6125 45.8033V60.5858H65.5V42.7432C65.5 28.8607 49.615 29.3782 45.88 36.1957L45.97 32.4157Z" fill="white"/>
</svg>
