<svg width="120" height="120" viewBox="0 0 120 120" fill="none" xmlns="http://www.w3.org/2000/svg">
<path d="M111.945 83.4424C111.456 82.3141 110.809 81.2852 110.032 80.3775L112.025 54.2639L83.6993 21.2374H75.2653C75.8081 19.6254 76.107 17.9025 76.107 16.11C76.1067 7.22695 68.8798 0 59.9967 0C51.1139 0 43.887 7.22695 43.887 16.11C43.887 17.9025 44.1856 19.6256 44.7286 21.2374H36.2946L7.96783 54.2644L9.9626 80.3902C7.15385 83.6759 6.20322 88.3697 7.90104 92.6618C8.72557 94.7459 10.1344 96.5625 11.9742 97.9151L16.6095 91.6095C15.9467 91.1222 15.4653 90.5074 15.1786 89.7832C14.3227 87.6192 15.3867 85.1627 17.5505 84.3068C19.7149 83.4513 22.171 84.5149 23.0267 86.6787C23.3133 87.4036 23.3827 88.1813 23.2324 88.9896L30.9267 90.4188C31.3439 88.1735 31.1283 85.8848 30.304 83.8001C29.5845 81.9811 28.4667 80.4373 27.0926 79.2225L30.8006 61.5309L38.6215 54.1294L42.2138 77.3255H35.9949L37.0364 112.174H34.3083V120H85.6852V112.174H82.9571L83.9986 77.3248H77.7797L81.372 54.1287L89.1928 61.5305L92.8992 79.2141C91.4986 80.453 90.3973 82.0106 89.6897 83.7996C88.8652 85.8841 88.6496 88.1733 89.067 90.4188L96.761 88.9894C96.611 88.1808 96.6799 87.4036 96.9668 86.6787C97.3817 85.6305 98.1792 84.8067 99.2135 84.3586C100.248 83.9107 101.394 83.8927 102.443 84.307C103.491 84.7219 104.315 85.5195 104.763 86.554C105.211 87.5883 105.229 88.7348 104.815 89.7832C104.528 90.5079 104.047 91.1224 103.384 91.6095L108.019 97.9158C109.859 96.563 111.268 94.7466 112.092 92.6618C113.276 89.6691 113.224 86.3953 111.945 83.4424ZM19.7288 76.2045C18.9907 76.1653 18.2447 76.1925 17.4987 76.2926L16.3116 60.7434L22.6264 62.3803L19.7288 76.2045ZM26.1061 55.1979L19.0467 53.3679L35.5278 34.1522L37.166 44.7307L26.1061 55.1979ZM59.9967 7.82602C64.5645 7.82602 68.2807 11.542 68.2807 16.11C68.2807 20.6775 64.5647 24.3938 59.9967 24.3938C55.4292 24.3938 51.713 20.6777 51.713 16.11C51.713 11.5423 55.429 7.82602 59.9967 7.82602ZM49.8251 112.174H44.8657L44.0583 85.1508H50.6332L49.8251 112.174ZM57.6549 112.174L58.298 90.6586H61.6955L62.3388 112.174H57.6549ZM75.1275 112.174H70.1681L69.3605 85.1508H75.9352L75.1275 112.174ZM69.8604 77.3245H61.2971L61.4616 82.8323H58.5317L58.6962 77.3245H50.1328L42.6588 29.0634H50.4319C53.1087 31.0453 56.4176 32.2198 59.9965 32.2198C63.5754 32.2198 66.8843 31.0453 69.5611 29.0634H77.3342L69.8604 77.3245ZM93.8876 55.1981L82.8274 44.7307L84.4657 34.1524L100.947 53.3681L93.8876 55.1981ZM102.495 76.2879C101.754 76.1866 101.007 76.1578 100.263 76.197L97.3674 62.3808L103.682 60.7439L102.495 76.2879Z" fill="url(#paint0_linear_41_3889)"/>
<defs>
<linearGradient id="paint0_linear_41_3889" x1="7.05664" y1="60" x2="112.943" y2="60" gradientUnits="userSpaceOnUse">
<stop stop-color="#FE0C0B"/>
<stop offset="1" stop-color="#140F18"/>
</linearGradient>
</defs>
</svg>
